<svg width="20" height="20" viewBox="0 0 20 20" fill="none" xmlns="http://www.w3.org/2000/svg">
<path d="M10 0C11.8757 0 13.4513 0.0990696 14.75 0.387695C16.06 0.678846 17.1488 1.1761 17.9863 2.01367C18.8239 2.85124 19.3212 3.93996 19.6123 5.25C19.9009 6.5487 20 8.1243 20 10C20 11.8757 19.9009 13.4513 19.6123 14.75C19.3212 16.06 18.8239 17.1488 17.9863 17.9863C17.1488 18.8239 16.06 19.3212 14.75 19.6123C13.4513 19.9009 11.8757 20 10 20C8.1243 20 6.5487 19.9009 5.25 19.6123C3.93996 19.3212 2.85124 18.8239 2.01367 17.9863C1.1761 17.1488 0.678846 16.06 0.387695 14.75C0.0990696 13.4513 0 11.8757 0 10C0 8.1243 0.0990696 6.5487 0.387695 5.25C0.678846 3.93996 1.1761 2.85124 2.01367 2.01367C2.85124 1.1761 3.93996 0.678846 5.25 0.387695C6.5487 0.0990696 8.1243 0 10 0ZM9.70703 6.29297C9.31651 5.90244 8.68349 5.90244 8.29297 6.29297C7.90244 6.68349 7.90244 7.31651 8.29297 7.70703L10.5859 10L8.29297 12.293C7.90244 12.6835 7.90244 13.3165 8.29297 13.707C8.68349 14.0976 9.31651 14.0976 9.70703 13.707L12.4229 10.9912C12.9703 10.4437 12.9703 9.55627 12.4229 9.00879L9.70703 6.29297Z" fill="#F3F2FF"/>
</svg>
