<svg width="15" height="15" viewBox="0 0 15 15" fill="none" xmlns="http://www.w3.org/2000/svg">
<path d="M12.7533 2.16152C11.3504 0.766992 9.48214 0 7.49665 0C3.39844 0 0.0636161 3.30703 0.0636161 7.37109C0.0636161 8.66934 0.405134 9.9377 1.05469 11.0566L0 14.875L3.94085 13.849C5.02567 14.4367 6.24777 14.7455 7.4933 14.7455H7.49665C11.5915 14.7455 15 11.4385 15 7.37441C15 5.40547 14.1562 3.55605 12.7533 2.16152ZM7.49665 13.5037C6.38504 13.5037 5.29687 13.2082 4.34933 12.6504L4.125 12.5176L1.78795 13.1252L2.41071 10.8641L2.26339 10.6316C1.64397 9.65547 1.3192 8.52988 1.3192 7.37109C1.3192 3.99434 4.09152 1.24512 7.5 1.24512C9.15067 1.24512 10.7009 1.88262 11.8661 3.04141C13.0312 4.2002 13.7478 5.7375 13.7444 7.37441C13.7444 10.7545 10.9018 13.5037 7.49665 13.5037ZM10.885 8.91504C10.7009 8.82207 9.78683 8.37715 9.61607 8.31738C9.44531 8.2543 9.32143 8.22441 9.19755 8.41035C9.07366 8.59629 8.71875 9.00801 8.60826 9.13418C8.50112 9.25703 8.39062 9.27363 8.20647 9.18066C7.11496 8.63945 6.39844 8.21445 5.67857 6.98926C5.48772 6.66387 5.86942 6.68711 6.22433 5.9832C6.2846 5.86035 6.25446 5.7541 6.20759 5.66113C6.16071 5.56816 5.78906 4.66172 5.63504 4.29316C5.48438 3.93457 5.33036 3.98438 5.21652 3.97773C5.10938 3.97109 4.98549 3.97109 4.86161 3.97109C4.73772 3.97109 4.53683 4.01758 4.36607 4.2002C4.19531 4.38613 3.71652 4.83105 3.71652 5.7375C3.71652 6.64395 4.38281 7.52051 4.47321 7.64336C4.56696 7.76621 5.78237 9.62559 7.64732 10.4258C8.82589 10.9305 9.28795 10.9736 9.87723 10.8873C10.2355 10.8342 10.9754 10.4424 11.1295 10.0107C11.2835 9.5791 11.2835 9.21055 11.2366 9.13418C11.1931 9.05117 11.0692 9.00469 10.885 8.91504Z" fill="#0284C7"/>
</svg>
