<svg width="27" height="27" viewBox="0 0 27 27" fill="none" xmlns="http://www.w3.org/2000/svg">
<path d="M20.1867 0H6.47998C2.90665 0 0 2.90667 0 6.48V20.1867C0 23.76 2.90665 26.6667 6.47998 26.6667H20.1867C23.76 26.6667 26.6667 23.76 26.6667 20.1867V6.48C26.6667 2.90667 23.76 0 20.1867 0ZM20.2 7.88C19.44 7.88 18.8267 7.26667 18.8267 6.52C18.8267 5.76 19.44 5.14667 20.2 5.14667C20.9467 5.14667 21.56 5.76 21.56 6.52C21.56 7.26667 20.9467 7.88 20.2 7.88ZM13.3333 7.57333C16.5067 7.57333 19.0933 10.16 19.0933 13.3333C19.0933 16.5067 16.5067 19.0933 13.3333 19.0933C10.16 19.0933 7.57332 16.5067 7.57332 13.3333C7.57332 10.16 10.16 7.57333 13.3333 7.57333Z" fill="#4D5566"/>
</svg>
