<svg width="27" height="27" viewBox="0 0 27 27" fill="none" xmlns="http://www.w3.org/2000/svg">
<path d="M20.1867 0H6.47998C2.90665 0 0 2.90667 0 6.48V20.1867C0 23.76 2.90665 26.6667 6.47998 26.6667H20.1867C23.76 26.6667 26.6667 23.76 26.6667 20.1867V6.48C26.6667 2.90667 23.76 0 20.1867 0ZM9.22668 9.56C8.48002 9.56 7.85335 8.94667 7.85335 8.2C7.85335 7.44 8.46667 6.82667 9.21334 6.82667H9.22668C9.98668 6.82667 10.6 7.44 10.6 8.2C10.6 8.94667 9.98668 9.56 9.22668 9.56ZM10.2 11.6267V18.4667C10.2 19.0267 9.75999 19.4667 9.19999 19.4667C8.65333 19.4667 8.19999 19.0267 8.19999 18.4667V11.6267C8.19999 11.0667 8.65333 10.6267 9.19999 10.6267C9.75999 10.6267 10.2 11.0667 10.2 11.6267ZM18.4667 18.4667C18.4667 19.0267 18.0133 19.4667 17.4667 19.4667C16.9067 19.4667 16.4667 19.0267 16.4667 18.4667V15.3467C16.4667 14.5067 16.2933 14.36 16.16 14.24C16 14.0933 15.72 14 15.3733 13.9867C15.0933 14 14.8133 14.0933 14.6533 14.24C14.52 14.36 14.3467 14.5067 14.3467 15.3467V18.4667C14.3467 19.0267 13.9067 19.4667 13.3467 19.4667C12.8 19.4667 12.3467 19.0267 12.3467 18.4667V15.3467C12.3467 14.1333 12.64 13.36 13.32 12.7467C13.84 12.28 14.5467 12.0267 15.3733 11.9867C16.2667 12.0267 16.9733 12.28 17.5067 12.7467C18.1733 13.36 18.4667 14.1333 18.4667 15.3467V18.4667Z" fill="#4D5566"/>
</svg>
