<svg width="27" height="27" viewBox="0 0 27 27" fill="none" xmlns="http://www.w3.org/2000/svg">
<path d="M13.3333 0C5.98667 0 0 5.98667 0 13.3333C0 20.68 5.98667 26.6667 13.3333 26.6667C20.68 26.6667 26.6667 20.68 26.6667 13.3333C26.6667 5.98667 20.68 0 13.3333 0ZM11.3067 25.3067C11.1867 25.7467 10.7867 26.04 10.3467 26.04C10.2533 26.04 10.1733 26.04 10.08 26.0133C9.54666 25.8667 9.22666 25.32 9.37333 24.7867L9.57332 24.0267L12.3733 13.52C12.5067 13 13.0533 12.6667 13.5867 12.8133C14.12 12.96 14.44 13.5067 14.3067 14.04L13.28 17.92C13.3867 17.92 13.5067 17.96 13.6133 18C13.96 18.1467 14.3067 18.2267 14.6533 18.2267H14.7067C16.4667 18.2267 18.4 16.32 18.7867 14.2C18.9467 13.2533 18.8267 12.3733 18.4267 11.5867C17.4933 9.74666 15.2933 8.92 13.6533 8.92C11.7333 8.92 10.1733 9.52 9.15999 10.64C8.33333 11.5467 7.94665 12.52 8.02665 13.5467C8.10665 14.68 8.74666 15.5067 9.11999 15.8933C9.49333 16.2933 9.48 16.92 9.08 17.3067C8.68 17.6933 8.05333 17.68 7.66667 17.28C7.10667 16.6933 6.15999 15.4533 6.02665 13.68C5.94665 12.6 6.17333 10.96 7.66667 9.29333C9.05333 7.76 11.1867 6.92 13.6533 6.92C15.96 6.92 18.88 8.08 20.2133 10.6667C20.6267 11.48 21.0533 12.8133 20.7467 14.5467C20.2667 17.32 17.72 20.2267 14.7067 20.2267H14.6C14 20.2133 13.4 20.08 12.8133 19.8267C12.8 19.8133 12.7866 19.8133 12.7733 19.8L11.52 24.52L11.3067 25.3067Z" fill="#4D5566"/>
</svg>
